<svg xmlns="http://www.w3.org/2000/svg" xmlns:xlink="http://www.w3.org/1999/xlink" width="500" zoomAndPan="magnify" viewBox="0 0 375 374.999991" height="500" preserveAspectRatio="xMidYMid meet" version="1.0"><defs><g/></defs><g fill="#5271ff" fill-opacity="1"><g transform="translate(-0.523326, 187.54477)"><g><path d="M 5.984375 -82.3125 L 31.53125 -82.3125 C 39.238281 -82.3125 45.382812 -80.664062 49.96875 -77.375 C 54.5625 -74.082031 56.859375 -68.742188 56.859375 -61.359375 C 56.859375 -53.109375 53.4375 -47.222656 46.59375 -43.703125 C 58.300781 -41.640625 64.15625 -34.722656 64.15625 -22.953125 C 64.15625 -16.035156 61.757812 -10.476562 56.96875 -6.28125 C 52.175781 -2.09375 45.59375 0 37.21875 0 L 5.984375 0 Z M 24.734375 -50.078125 L 26.234375 -50.078125 C 30.429688 -50.078125 33.554688 -50.804688 35.609375 -52.265625 C 37.671875 -53.734375 38.703125 -56.128906 38.703125 -59.453125 C 38.703125 -65.046875 34.546875 -67.84375 26.234375 -67.84375 L 24.734375 -67.84375 Z M 24.734375 -14.46875 L 30.625 -14.46875 C 39.800781 -14.46875 44.390625 -17.523438 44.390625 -23.640625 C 44.390625 -27.296875 43.242188 -29.921875 40.953125 -31.515625 C 38.660156 -33.117188 35.21875 -33.921875 30.625 -33.921875 L 24.734375 -33.921875 Z M 24.734375 -14.46875 "/></g></g></g><g fill="#5271ff" fill-opacity="1"><g transform="translate(56.530411, 187.54477)"><g><path d="M 22.640625 -51.1875 L 22.640625 -26.84375 C 22.640625 -21.78125 23.40625 -18.1875 24.9375 -16.0625 C 26.46875 -13.9375 29.0625 -12.875 32.71875 -12.875 C 36.375 -12.875 38.96875 -13.9375 40.5 -16.0625 C 42.03125 -18.1875 42.796875 -21.78125 42.796875 -26.84375 L 42.796875 -51.1875 L 60.453125 -51.1875 L 60.453125 -22.546875 C 60.453125 -14.035156 58.238281 -7.898438 53.8125 -4.140625 C 49.394531 -0.378906 42.363281 1.5 32.71875 1.5 C 23.070312 1.5 16.035156 -0.378906 11.609375 -4.140625 C 7.191406 -7.898438 4.984375 -14.035156 4.984375 -22.546875 L 4.984375 -51.1875 Z M 22.640625 -51.1875 "/></g></g></g><g fill="#5271ff" fill-opacity="1"><g transform="translate(112.58667, 187.54477)"><g><path d="M 9.46875 -6.328125 C 4.6875 -11.554688 2.296875 -17.957031 2.296875 -25.53125 C 2.296875 -33.113281 4.6875 -39.53125 9.46875 -44.78125 C 14.257812 -50.039062 20.347656 -52.671875 27.734375 -52.671875 C 34.515625 -52.671875 40.101562 -50.546875 44.5 -46.296875 L 44.5 -85.796875 L 62.15625 -85.796875 L 62.15625 0 L 44.6875 0 L 44.6875 -5.78125 L 44.5 -5.78125 C 40.101562 -0.925781 34.515625 1.5 27.734375 1.5 C 20.347656 1.5 14.257812 -1.109375 9.46875 -6.328125 Z M 24.484375 -34.21875 C 22.191406 -31.957031 21.046875 -29.0625 21.046875 -25.53125 C 21.046875 -22.007812 22.144531 -19.132812 24.34375 -16.90625 C 26.539062 -14.675781 29.429688 -13.5625 33.015625 -13.5625 C 36.472656 -13.5625 39.316406 -14.691406 41.546875 -16.953125 C 43.773438 -19.222656 44.890625 -22.085938 44.890625 -25.546875 C 44.890625 -29.066406 43.742188 -31.957031 41.453125 -34.21875 C 39.160156 -36.476562 36.347656 -37.609375 33.015625 -37.609375 C 29.628906 -37.609375 26.785156 -36.476562 24.484375 -34.21875 Z M 24.484375 -34.21875 "/></g></g></g><g fill="#5271ff" fill-opacity="1"><g transform="translate(171.336152, 187.54477)"><g><path d="M 9.46875 -6.328125 C 4.6875 -11.554688 2.296875 -17.957031 2.296875 -25.53125 C 2.296875 -33.113281 4.6875 -39.53125 9.46875 -44.78125 C 14.257812 -50.039062 20.347656 -52.671875 27.734375 -52.671875 C 34.515625 -52.671875 40.101562 -50.546875 44.5 -46.296875 L 44.5 -85.796875 L 62.15625 -85.796875 L 62.15625 0 L 44.6875 0 L 44.6875 -5.78125 L 44.5 -5.78125 C 40.101562 -0.925781 34.515625 1.5 27.734375 1.5 C 20.347656 1.5 14.257812 -1.109375 9.46875 -6.328125 Z M 24.484375 -34.21875 C 22.191406 -31.957031 21.046875 -29.0625 21.046875 -25.53125 C 21.046875 -22.007812 22.144531 -19.132812 24.34375 -16.90625 C 26.539062 -14.675781 29.429688 -13.5625 33.015625 -13.5625 C 36.472656 -13.5625 39.316406 -14.691406 41.546875 -16.953125 C 43.773438 -19.222656 44.890625 -22.085938 44.890625 -25.546875 C 44.890625 -29.066406 43.742188 -31.957031 41.453125 -34.21875 C 39.160156 -36.476562 36.347656 -37.609375 33.015625 -37.609375 C 29.628906 -37.609375 26.785156 -36.476562 24.484375 -34.21875 Z M 24.484375 -34.21875 "/></g></g></g><g fill="#5271ff" fill-opacity="1"><g transform="translate(230.085633, 187.54477)"><g><path d="M 44.796875 -51.1875 L 65.140625 -51.1875 L 24.9375 25.9375 L 4.59375 25.9375 L 22.25 -7.984375 L -2 -51.1875 L 18.359375 -51.1875 L 32.625 -24.9375 Z M 44.796875 -51.1875 "/></g></g></g><g fill="#5271ff" fill-opacity="1"><g transform="translate(207.922468, 257.782638)"><g><path d="M 64.03125 0 L 60.671875 -42.203125 L 60.234375 -42.203125 L 45.65625 -0.4375 L 35.984375 -0.4375 L 21.40625 -42.203125 L 20.96875 -42.203125 L 17.609375 0 L 1.375 0 L 7.765625 -71.1875 L 25.03125 -71.1875 L 40.8125 -30.125 L 56.609375 -71.1875 L 73.875 -71.1875 L 80.25 0 Z M 64.03125 0 "/></g></g></g><g fill="#5271ff" fill-opacity="1"><g transform="translate(281.427441, 257.782638)"><g><path d="M 5.171875 -71.1875 L 25.796875 -71.1875 C 35.691406 -71.1875 44.148438 -67.804688 51.171875 -61.046875 C 58.191406 -54.296875 61.703125 -45.828125 61.703125 -35.640625 C 61.703125 -25.398438 58.207031 -16.898438 51.21875 -10.140625 C 44.226562 -3.378906 35.753906 0 25.796875 0 L 5.171875 0 Z M 21.40625 -14.5 L 23.90625 -14.5 C 29.832031 -14.5 34.675781 -16.5 38.4375 -20.5 C 42.207031 -24.5 44.125 -29.515625 44.1875 -35.546875 C 44.1875 -41.585938 42.300781 -46.625 38.53125 -50.65625 C 34.757812 -54.6875 29.882812 -56.703125 23.90625 -56.703125 L 21.40625 -56.703125 Z M 21.40625 -14.5 "/></g></g></g><g fill="#5271ff" fill-opacity="1"><g transform="translate(336.986957, 257.782638)"><g><path d="M 15.015625 -18.46875 C 17.773438 -18.46875 20.117188 -17.503906 22.046875 -15.578125 C 23.972656 -13.648438 24.9375 -11.304688 24.9375 -8.546875 C 24.9375 -5.835938 23.972656 -3.519531 22.046875 -1.59375 C 20.117188 0.332031 17.773438 1.296875 15.015625 1.296875 C 12.304688 1.296875 9.988281 0.332031 8.0625 -1.59375 C 6.132812 -3.519531 5.171875 -5.835938 5.171875 -8.546875 C 5.171875 -11.304688 6.132812 -13.648438 8.0625 -15.578125 C 9.988281 -17.503906 12.304688 -18.46875 15.015625 -18.46875 Z M 15.015625 -18.46875 "/></g></g></g></svg>